<?xml version="1.0" standalone="no"?>
<!DOCTYPE svg PUBLIC "-//W3C//DTD SVG 20010904//EN"
 "http://www.w3.org/TR/2001/REC-SVG-20010904/DTD/svg10.dtd">
<svg version="1.0" xmlns="http://www.w3.org/2000/svg"
 width="230.000000pt" height="230.000000pt" viewBox="0 0 230.000000 230.000000"
 preserveAspectRatio="xMidYMid meet">
<metadata>
Created by potrace 1.14, written by Peter Selinger 2001-2017
</metadata>
<g transform="translate(0.000000,230.000000) scale(0.100000,-0.100000)"
fill="#000000" stroke="none">
<path d="M1605 1653 c-32 -38 -91 -104 -131 -148 -86 -95 -102 -113 -281 -317
-76 -86 -144 -159 -151 -162 -9 -4 -79 59 -189 169 -172 172 -176 175 -196
158 -57 -51 -647 -644 -647 -651 0 -4 28 -36 63 -70 l62 -62 265 265 c146 145
270 264 275 264 6 0 89 -78 185 -174 l175 -175 38 42 c62 69 145 161 164 184
10 12 52 58 93 104 41 45 80 88 85 94 6 6 30 34 55 62 25 27 77 85 115 129 39
43 100 113 138 154 37 42 67 80 67 85 0 11 -107 116 -119 116 -4 0 -33 -30
-66 -67z"/>
<path d="M1955 1463 c-57 -8 -105 -24 -105 -34 0 -6 -4 -8 -9 -4 -6 3 -15 -4
-22 -17 -9 -16 -9 -23 0 -26 6 -2 9 -7 6 -12 -6 -9 65 -37 120 -47 47 -8 178
-7 220 1 54 12 95 27 95 37 0 5 6 8 12 6 24 -4 20 41 -4 57 -55 36 -208 55
-313 39z"/>
<path d="M2267 1305 c-9 -8 -19 -15 -22 -14 -3 1 -32 -4 -64 -12 -52 -11 -58
-15 -48 -30 6 -10 14 -16 18 -13 4 2 9 -5 12 -16 5 -19 8 -19 51 -6 50 15 70
31 78 62 8 33 -6 49 -25 29z"/>
<path d="M1800 1258 c0 -4 -6 -5 -14 -2 -8 3 -17 1 -20 -5 -4 -6 -13 -8 -20
-5 -7 3 -21 -2 -29 -11 -9 -9 -20 -16 -24 -17 -20 -2 -32 -11 -27 -19 3 -5 0
-9 -5 -9 -15 0 -14 -39 2 -54 20 -20 57 -38 109 -51 61 -17 225 -13 258 5 14
8 27 15 30 16 3 1 15 5 27 9 12 4 25 14 29 23 11 25 12 52 2 52 -5 0 -6 5 -3
10 3 6 -1 10 -9 10 -9 0 -16 4 -16 8 0 8 -46 27 -92 39 -36 9 -198 10 -198 1z"/>
<path d="M2267 1184 c-27 -14 -58 -24 -83 -26 -9 -1 -10 -65 -1 -74 6 -7 79
26 95 43 8 8 16 28 17 44 1 16 1 29 1 29 -1 -1 -14 -8 -29 -16z"/>
<path d="M1651 1053 c-1 -47 16 -65 80 -84 65 -19 190 -27 249 -14 14 2 39 7
55 11 17 3 45 15 63 26 26 16 32 26 32 54 0 19 -2 34 -4 34 -2 0 -25 -10 -52
-22 -65 -29 -64 -29 -174 -32 -60 -1 -111 3 -140 12 -25 8 -51 14 -57 15 -7 0
-13 4 -13 9 0 4 -6 8 -14 8 -8 0 -17 6 -19 13 -3 6 -6 -7 -6 -30z"/>
<path d="M1648 919 c2 -16 9 -29 14 -29 5 0 6 -4 3 -10 -3 -5 -1 -11 4 -11 21
-3 26 -4 38 -12 45 -29 293 -41 309 -16 2 5 11 6 19 2 8 -3 15 0 15 7 0 6 4 9
8 6 5 -3 23 4 40 14 25 15 32 27 32 50 0 16 -4 30 -10 30 -5 0 -10 -5 -10 -12
0 -6 -3 -9 -6 -5 -3 3 -29 -3 -57 -12 -87 -30 -268 -22 -367 16 -32 13 -36 10
-32 -18z"/>
</g>
</svg>
