<svg id="Logo" xmlns="http://www.w3.org/2000/svg" fill="#fff" width="92" height="35.47" viewBox="0 0 92 35.47">
  <text id="cryptostalker" transform="translate(0 15.47)" fill="#fff" font-size="16" font-family="MyriadPro-Semibold, Myriad Pro" font-weight="600"><tspan x="0" y="16">cryptostalker</tspan></text>
  <path id="Icon_material-show-chart" data-name="Icon material-show-chart" d="M5.25,27.735l9-9.015,6,6L33,10.38,30.885,8.265,20.25,20.22l-6-6L3,25.485Z" transform="translate(23.856 -8.265)" fill="#00c590"/>
  <path id="Icon_awesome-coins" data-name="Icon awesome-coins" d="M0,8.617v.908c0,.751,1.829,1.361,4.082,1.361s4.082-.61,4.082-1.361V8.617a7.732,7.732,0,0,1-4.082.908A7.732,7.732,0,0,1,0,8.617Zm6.8-5.9c2.254,0,4.082-.61,4.082-1.361S9.058,0,6.8,0,2.722.61,2.722,1.361,4.55,2.722,6.8,2.722ZM0,6.387v1.1c0,.751,1.829,1.361,4.082,1.361s4.082-.61,4.082-1.361v-1.1a6.847,6.847,0,0,1-4.082,1.1A6.847,6.847,0,0,1,0,6.387Zm8.845.234c1.218-.236,2.041-.674,2.041-1.178V4.535a5.221,5.221,0,0,1-2.041.734ZM4.082,3.4C1.829,3.4,0,4.163,0,5.1S1.829,6.8,4.082,6.8s4.082-.761,4.082-1.7S6.336,3.4,4.082,3.4ZM8.745,4.6c1.276-.23,2.141-.68,2.141-1.2V2.494a6.922,6.922,0,0,1-3.417.889A2.381,2.381,0,0,1,8.745,4.6Z" transform="translate(54.258 4.292)" fill="#ead94c"/>
</svg>
